<?xml version="1.0" standalone="no"?>
<!DOCTYPE svg PUBLIC "-//W3C//DTD SVG 20010904//EN"
 "http://www.w3.org/TR/2001/REC-SVG-20010904/DTD/svg10.dtd">
<svg version="1.0" xmlns="http://www.w3.org/2000/svg"
 width="600.000000pt" height="600.000000pt" viewBox="0 0 600.000000 600.000000"
 preserveAspectRatio="xMidYMid meet">

<g transform="translate(0.000000,600.000000) scale(0.100000,-0.100000)"
fill="#000000" stroke="none">
<path d="M2095 5975 c13 -11 34 -42 45 -70 30 -70 46 -85 91 -85 47 0 64 22
74 95 4 28 12 55 17 62 7 9 -22 13 -121 15 l-130 3 24 -20z"/>
<path d="M70 5976 c0 -30 41 -66 75 -66 24 0 39 7 54 26 37 47 29 54 -54 54
-57 0 -75 -3 -75 -14z"/>
<path d="M301 5968 c-43 -46 -37 -125 12 -162 75 -56 149 73 92 160 -21 32
-76 33 -104 2z"/>
<path d="M465 5970 c-3 -11 3 -40 14 -65 43 -96 151 -90 151 9 0 14 -5 37 -12
51 -10 23 -16 25 -79 25 -59 0 -68 -3 -74 -20z"/>
<path d="M1593 5979 c11 -7 23 -7 35 0 14 9 11 10 -18 10 -29 0 -32 -1 -17
-10z"/>
<path d="M1658 5979 c-29 -16 -21 -56 17 -96 41 -42 65 -39 65 9 0 18 7 42 15
52 27 35 19 46 -32 46 -27 0 -56 -5 -65 -11z"/>
<path d="M2411 5964 c-61 -78 22 -149 117 -100 39 20 54 47 50 89 l-3 32 -71
3 c-68 3 -73 1 -93 -24z"/>
<path d="M3065 5968 c19 -63 82 -80 122 -34 40 47 32 56 -53 56 -73 0 -75 -1
-69 -22z"/>
<path d="M3291 5965 c-29 -37 -35 -77 -17 -119 30 -72 102 -71 132 1 18 43 13
97 -12 124 -26 28 -78 25 -103 -6z"/>
<path d="M3460 5955 c0 -52 26 -94 67 -112 33 -13 38 -13 62 5 30 22 39 69 21
113 -12 28 -15 29 -81 29 l-69 0 0 -35z"/>
<path d="M4588 5978 c17 -8 26 -8 34 0 9 9 4 12 -22 11 -33 0 -34 -1 -12 -11z"/>
<path d="M4646 5974 c-24 -24 -19 -47 18 -89 41 -46 66 -43 66 8 0 19 7 40 15
47 8 7 15 21 15 31 0 16 -8 19 -49 19 -32 0 -55 -6 -65 -16z"/>
<path d="M5091 5971 c13 -10 33 -42 43 -70 21 -58 46 -81 92 -81 42 0 61 25
70 90 4 30 11 61 17 68 7 9 -17 12 -118 12 -127 0 -128 0 -104 -19z"/>
<path d="M5401 5961 c-55 -77 13 -142 105 -101 53 23 82 70 65 106 -10 22 -17
24 -80 24 -65 0 -71 -2 -90 -29z"/>
<path d="M1544 5945 c-14 -35 41 -60 66 -30 10 12 10 18 0 30 -16 19 -59 19
-66 0z"/>
<path d="M4539 5944 c-11 -14 -10 -18 6 -30 10 -8 24 -14 31 -14 18 0 37 28
30 45 -7 20 -50 19 -67 -1z"/>
<path d="M990 5906 c-40 -13 -80 -66 -80 -107 0 -35 31 -69 63 -69 51 0 117
66 117 117 0 25 -25 59 -48 65 -10 3 -34 0 -52 -6z"/>
<path d="M3993 5913 c-53 -10 -104 -93 -88 -143 25 -79 159 -27 172 67 5 35 2
43 -22 61 -15 12 -30 21 -34 21 -3 -1 -16 -4 -28 -6z"/>
<path d="M1583 5864 c-4 -11 1 -22 12 -30 24 -18 30 -17 50 2 12 12 13 19 4
30 -16 19 -58 18 -66 -2z"/>
<path d="M4573 5864 c-6 -15 19 -44 37 -44 18 0 40 27 34 43 -8 23 -62 23 -71
1z"/>
<path d="M1164 5826 c-27 -27 -34 -42 -34 -74 0 -24 7 -47 16 -56 48 -48 154
16 154 94 0 48 -21 70 -67 70 -27 0 -43 -8 -69 -34z"/>
<path d="M4155 5825 c-86 -87 0 -198 94 -120 53 45 61 118 17 147 -29 19 -76
8 -111 -27z"/>
<path d="M2702 5778 c3 -24 34 -36 50 -20 11 11 -16 42 -38 42 -10 0 -14 -8
-12 -22z"/>
<path d="M5694 5785 c-8 -20 4 -35 26 -35 25 0 35 17 20 35 -16 19 -39 19 -46
0z"/>
<path d="M2647 5753 c-13 -12 -7 -32 12 -42 28 -15 48 11 26 33 -18 17 -28 20
-38 9z"/>
<path d="M5637 5753 c-13 -12 -7 -32 12 -42 28 -15 48 11 26 33 -18 17 -28 20
-38 9z"/>
<path d="M2740 5723 c-30 -5 -51 -29 -43 -50 3 -8 16 -26 29 -40 29 -32 54
-24 54 16 0 16 5 33 10 36 6 3 10 15 10 26 0 19 -8 21 -60 12z"/>
<path d="M5723 5719 c-41 -12 -43 -41 -7 -82 30 -35 54 -29 54 12 0 16 5 33
10 36 6 3 10 15 10 26 0 21 -15 23 -67 8z"/>
<path d="M2012 5674 c-27 -19 -29 -60 -3 -74 65 -34 143 27 95 74 -20 20 -63
20 -92 0z"/>
<path d="M2620 5670 c0 -17 5 -21 28 -18 16 2 27 9 27 18 0 9 -11 16 -27 18
-23 3 -28 -1 -28 -18z"/>
<path d="M5002 5674 c-27 -19 -29 -60 -3 -74 47 -24 111 2 111 45 0 42 -64 60
-108 29z"/>
<path d="M5612 5673 c2 -12 12 -18 28 -18 36 0 33 29 -3 33 -23 3 -28 0 -25
-15z"/>
<path d="M1273 5660 c-73 -44 -47 -140 38 -140 36 0 89 31 104 61 20 38 19 46
-10 74 -30 31 -86 33 -132 5z"/>
<path d="M4268 5664 c-54 -29 -64 -90 -22 -123 32 -25 64 -27 110 -5 65 31 82
84 41 122 -28 26 -88 29 -129 6z"/>
<path d="M422 5654 c-31 -21 -29 -62 3 -70 58 -14 107 24 85 66 -13 24 -56 27
-88 4z"/>
<path d="M1015 5660 c-11 -5 -50 -6 -86 -3 -63 5 -67 4 -87 -22 -39 -50 -27
-85 47 -139 40 -28 52 -44 61 -78 25 -99 41 -118 99 -118 25 0 36 7 51 33 11
17 20 44 20 58 0 14 12 39 26 54 47 51 55 99 26 154 -30 57 -103 85 -157 61z"/>
<path d="M3412 5654 c-40 -28 -22 -74 30 -74 29 0 68 30 68 53 0 36 -58 49
-98 21z"/>
<path d="M4005 5660 c-11 -5 -50 -6 -86 -3 -63 5 -67 4 -87 -22 -38 -48 -25
-81 56 -144 28 -23 52 -49 52 -59 0 -34 22 -94 41 -113 24 -24 80 -25 102 -1
9 9 20 36 25 59 5 24 21 56 35 73 71 84 26 205 -79 216 -21 2 -48 -1 -59 -6z"/>
<path d="M2187 5642 c-10 -10 -17 -24 -17 -30 0 -6 -13 -25 -30 -42 -42 -42
-41 -89 1 -124 23 -20 41 -26 72 -25 23 1 54 -2 70 -6 59 -16 79 51 28 99 -20
19 -30 41 -35 73 -3 25 -11 52 -17 59 -16 20 -53 17 -72 -4z"/>
<path d="M5176 5638 c-9 -12 -16 -26 -16 -31 0 -5 -13 -25 -30 -44 -38 -43
-38 -76 -1 -114 24 -24 38 -29 73 -28 24 0 57 -2 74 -6 26 -6 34 -3 47 15 18
26 13 45 -23 85 -18 19 -29 46 -33 73 -3 23 -11 49 -17 57 -18 22 -57 18 -74
-7z"/>
<path d="M2653 5614 c-5 -14 11 -34 27 -34 3 0 11 4 19 9 19 12 6 41 -19 41
-11 0 -23 -7 -27 -16z"/>
<path d="M5647 5623 c-13 -12 -7 -31 12 -36 26 -6 45 7 38 27 -6 16 -38 22
-50 9z"/>
<path d="M305 5560 c-17 -19 -17 -22 -2 -62 12 -30 15 -58 11 -94 -6 -46 -4
-53 15 -63 25 -14 55 -1 71 29 6 11 19 20 30 20 26 0 50 37 50 76 0 34 -37 74
-69 74 -9 0 -27 9 -41 20 -32 25 -43 25 -65 0z"/>
<path d="M519 5568 c-38 -30 -26 -78 19 -78 42 0 74 27 70 58 -3 23 -8 27 -38
30 -19 2 -42 -3 -51 -10z"/>
<path d="M3306 5567 c-15 -11 -17 -21 -11 -48 4 -19 8 -65 8 -102 2 -48 6 -70
17 -77 22 -14 26 -13 63 20 19 17 39 30 44 30 20 0 46 41 46 72 0 33 -40 78
-69 78 -9 0 -27 9 -41 20 -30 24 -34 24 -57 7z"/>
<path d="M3507 5562 c-26 -29 -22 -60 10 -68 40 -10 78 15 78 51 0 27 -3 30
-36 33 -24 2 -40 -3 -52 -16z"/>
<path d="M1966 5521 c-42 -47 10 -97 73 -71 35 14 50 52 31 75 -18 22 -83 19
-104 -4z"/>
<path d="M4957 5522 c-22 -24 -21 -45 3 -67 21 -19 70 -16 97 6 16 14 17 51 1
67 -19 19 -82 15 -101 -6z"/>
<path d="M2917 5452 c-65 -71 74 -211 142 -143 25 25 27 63 5 101 -33 56 -114
79 -147 42z"/>
<path d="M5906 5448 c-20 -28 -20 -51 -1 -89 14 -27 68 -69 88 -69 4 0 6 39 5
88 l-3 87 -37 3 c-28 2 -40 -2 -52 -20z"/>
<path d="M16 5377 c1 -91 14 -107 55 -66 17 17 20 29 16 57 -5 30 -50 92 -66
92 -3 0 -6 -37 -5 -83z"/>
<path d="M509 5438 c-10 -19 -8 -25 15 -45 42 -36 96 -24 96 22 0 46 -89 65
-111 23z"/>
<path d="M3513 5453 c-21 -8 -15 -51 9 -67 29 -21 51 -20 79 3 22 18 22 19 6
45 -13 20 -25 26 -50 25 -17 0 -38 -3 -44 -6z"/>
<path d="M1253 5430 c-58 -35 -69 -86 -27 -119 45 -36 122 -20 158 31 53 76
-44 141 -131 88z"/>
<path d="M4243 5430 c-33 -20 -53 -48 -53 -75 0 -27 46 -65 80 -65 59 0 120
47 120 92 0 63 -80 89 -147 48z"/>
<path d="M2035 5405 c-30 -29 -33 -70 -6 -85 52 -27 129 58 89 98 -19 19 -57
14 -83 -13z"/>
<path d="M5025 5405 c-34 -34 -32 -80 5 -85 32 -5 50 1 70 22 56 61 -16 123
-75 63z"/>
<path d="M1556 5381 c-37 -40 5 -82 45 -45 23 21 25 50 3 58 -24 9 -29 8 -48
-13z"/>
<path d="M2700 5380 c-24 -24 -26 -60 -6 -99 42 -81 166 -81 166 0 0 54 -66
119 -120 119 -11 0 -29 -9 -40 -20z"/>
<path d="M4562 5393 c-18 -7 -33 -39 -26 -57 8 -22 37 -20 58 3 30 34 8 71
-32 54z"/>
<path d="M5690 5380 c-52 -52 9 -159 91 -160 93 -1 92 117 -1 165 -39 20 -66
19 -90 -5z"/>
<path d="M1652 5354 c-28 -20 -26 -58 4 -62 25 -4 57 30 52 55 -4 24 -28 27
-56 7z"/>
<path d="M2177 5359 c-26 -15 -39 -56 -27 -80 26 -48 115 -1 108 57 -2 24 -8
29 -33 31 -16 2 -38 -2 -48 -8z"/>
<path d="M4640 5350 c-23 -23 -23 -38 3 -54 21 -13 59 20 55 48 -4 29 -33 31
-58 6z"/>
<path d="M5167 5359 c-26 -15 -39 -56 -27 -80 22 -40 98 -13 115 41 13 42 -42
66 -88 39z"/>
<path d="M443 5338 c-22 -29 -23 -38 -3 -58 41 -41 126 -9 101 38 -17 32 -79
45 -98 20z"/>
<path d="M3432 5338 c-29 -29 3 -78 51 -78 25 0 57 23 57 41 0 36 -81 64 -108
37z"/>
<path d="M1500 5266 c0 -13 9 -31 19 -40 11 -10 23 -31 26 -46 3 -16 12 -34
19 -39 16 -13 46 -4 46 14 0 7 9 24 20 38 44 56 15 95 -72 96 -54 0 -58 -1
-58 -23z"/>
<path d="M1686 5277 c-10 -7 -17 -22 -15 -33 6 -27 50 -30 72 -6 17 18 17 21
2 36 -20 19 -35 20 -59 3z"/>
<path d="M4497 5283 c-14 -13 -6 -40 18 -63 14 -13 25 -33 25 -45 0 -24 17
-45 38 -45 7 0 19 15 27 34 8 19 19 37 25 41 15 9 12 52 -6 69 -16 16 -114 23
-127 9z"/>
<path d="M4676 5274 c-22 -21 -20 -41 4 -49 46 -14 88 27 54 52 -23 17 -39 16
-58 -3z"/>
<path d="M47 5208 l-38 -10 1 -164 c1 -90 6 -164 11 -164 13 0 25 29 38 90 10
47 19 61 66 103 46 41 55 54 55 83 0 65 -44 85 -133 62z"/>
<path d="M2873 5201 c-37 -23 -63 -68 -63 -106 0 -35 28 -93 50 -105 11 -6 21
-27 25 -50 9 -55 39 -90 76 -90 45 0 75 37 90 109 9 50 17 65 46 87 18 14 42
35 53 47 27 28 26 81 -1 108 -18 18 -28 20 -68 14 -50 -8 -62 -8 -131 0 -35 5
-52 1 -77 -14z"/>
<path d="M5864 5201 c-33 -20 -64 -75 -64 -113 0 -29 25 -78 49 -95 11 -7 24
-35 31 -62 14 -61 37 -83 82 -79 l33 3 3 170 c2 151 1 171 -15 182 -25 19 -83
16 -119 -6z"/>
<path d="M2581 5184 c-27 -34 -26 -46 5 -83 45 -54 127 -61 164 -13 25 31 19
57 -21 95 -24 22 -39 27 -78 27 -42 0 -53 -4 -70 -26z"/>
<path d="M5582 5194 c-15 -10 -22 -25 -22 -49 0 -76 118 -118 178 -63 31 30
28 54 -12 94 -28 28 -41 34 -78 34 -24 0 -54 -7 -66 -16z"/>
<path d="M1664 5176 c-15 -12 -17 -18 -8 -33 16 -26 47 -27 68 -4 34 38 -17
69 -60 37z"/>
<path d="M4658 5179 c-37 -21 -7 -66 36 -55 28 7 41 33 25 52 -13 16 -37 17
-61 3z"/>
<path d="M967 5133 c-12 -12 -7 -51 7 -56 23 -9 39 18 26 42 -11 22 -22 26
-33 14z"/>
<path d="M3963 5133 c-18 -6 -16 -38 2 -53 17 -14 35 -5 35 19 0 22 -20 40
-37 34z"/>
<path d="M2140 5110 c0 -10 9 -24 19 -30 25 -13 27 -13 46 6 21 22 3 44 -36
44 -22 0 -29 -5 -29 -20z"/>
<path d="M5133 5114 c-4 -11 1 -22 12 -30 23 -17 27 -17 50 0 16 12 17 16 6
30 -17 21 -60 21 -68 0z"/>
<path d="M1034 5105 c-8 -21 3 -45 20 -45 20 0 29 16 21 40 -7 23 -33 27 -41
5z"/>
<path d="M2057 5113 c-4 -3 -7 -13 -7 -22 0 -8 -12 -32 -26 -52 -14 -21 -23
-42 -20 -48 8 -13 94 -12 119 1 23 12 21 50 -5 92 -22 33 -46 45 -61 29z"/>
<path d="M4025 5110 c-11 -17 5 -51 23 -48 23 4 23 52 0 56 -9 2 -19 -2 -23
-8z"/>
<path d="M5047 5113 c-4 -3 -7 -16 -7 -28 0 -12 -9 -30 -20 -40 -11 -10 -20
-29 -20 -42 0 -21 4 -23 46 -23 85 0 106 35 62 104 -22 33 -46 45 -61 29z"/>
<path d="M900 5080 c0 -26 38 -47 46 -25 9 23 -3 45 -26 45 -13 0 -20 -7 -20
-20z"/>
<path d="M3894 5085 c-8 -20 4 -35 26 -35 25 0 35 17 20 35 -16 19 -39 19 -46
0z"/>
<path d="M971 5051 c-19 -12 -23 -91 -4 -98 7 -3 21 1 31 9 9 9 29 18 45 22
37 9 34 30 -7 55 -37 23 -45 25 -65 12z"/>
<path d="M3962 5048 c-5 -7 -12 -31 -14 -53 -2 -33 0 -40 16 -43 11 -2 24 2
30 10 6 8 23 18 39 22 37 9 34 30 -7 55 -39 24 -50 26 -64 9z"/>
<path d="M2163 5034 c-4 -11 1 -22 12 -30 24 -18 40 -18 55 1 10 12 10 18 0
30 -17 20 -59 19 -67 -1z"/>
<path d="M5153 5034 c-4 -11 1 -22 12 -30 22 -16 34 -17 55 -4 12 7 12 13 4
27 -15 25 -62 29 -71 7z"/>
<path d="M884 5025 c-9 -23 3 -45 26 -45 27 0 27 36 0 50 -16 9 -22 8 -26 -5z"/>
<path d="M3874 5025 c-7 -18 12 -45 32 -45 17 0 18 32 2 48 -16 16 -27 15 -34
-3z"/>
<path d="M2660 4993 c-67 -25 -67 -103 0 -138 66 -34 150 -7 150 49 0 58 -90
111 -150 89z"/>
<path d="M5650 4993 c-67 -25 -67 -103 0 -138 67 -34 150 -8 150 48 0 60 -88
113 -150 90z"/>
<path d="M2143 4983 c-30 -12 -6 -63 29 -63 27 0 33 27 13 50 -19 21 -22 22
-42 13z"/>
<path d="M5133 4983 c-17 -6 -16 -38 2 -53 35 -29 72 12 40 44 -17 17 -22 18
-42 9z"/>
<path d="M397 4952 c-24 -26 -21 -49 8 -68 26 -17 67 -13 92 8 16 13 17 50 1
66 -19 19 -82 15 -101 -6z"/>
<path d="M3384 4945 c-19 -30 -13 -51 20 -66 33 -15 72 -4 92 26 16 24 15 27
-1 45 -27 30 -90 27 -111 -5z"/>
<path d="M2050 4925 c0 -33 36 -53 58 -31 14 14 14 17 -3 36 -26 29 -55 26
-55 -5z"/>
<path d="M5047 4943 c-14 -13 -6 -43 14 -53 41 -22 66 11 33 44 -16 17 -36 21
-47 9z"/>
<path d="M576 4918 c-9 -12 -16 -27 -16 -33 0 -6 -13 -22 -30 -37 -62 -54 -23
-150 59 -147 20 0 53 -3 73 -6 68 -13 91 35 42 86 -18 19 -30 45 -35 79 -4 29
-13 58 -20 66 -17 21 -56 17 -73 -8z"/>
<path d="M3560 4901 c-11 -22 -26 -44 -33 -48 -20 -11 -37 -47 -37 -75 0 -44
64 -90 104 -75 7 3 31 -1 52 -8 34 -12 41 -11 57 2 25 23 21 50 -13 93 -20 25
-30 49 -30 72 0 43 -24 78 -55 78 -19 0 -30 -10 -45 -39z"/>
<path d="M1245 4820 c-15 -16 -16 -26 -8 -58 6 -23 6 -48 1 -62 -12 -31 -2
-69 24 -97 30 -33 93 -31 132 2 16 14 36 25 45 25 30 0 61 30 61 59 0 35 -14
47 -70 60 -30 7 -55 22 -83 50 -44 45 -74 52 -102 21z"/>
<path d="M4235 4817 c-11 -18 -12 -31 -5 -59 7 -22 7 -45 1 -60 -13 -35 -2
-76 27 -98 33 -27 95 -27 122 0 12 12 37 26 57 33 81 27 75 93 -12 114 -36 9
-59 23 -86 53 -43 47 -80 53 -104 17z"/>
<path d="M362 4814 c-24 -17 -29 -53 -10 -72 32 -32 118 -3 118 41 0 20 -37
47 -65 47 -11 0 -31 -7 -43 -16z"/>
<path d="M3360 4817 c-28 -14 -38 -51 -20 -73 18 -20 83 -18 103 4 23 25 21
48 -5 66 -27 19 -45 20 -78 3z"/>
<path d="M1076 4744 c-43 -44 -31 -104 22 -104 30 0 82 52 82 82 0 53 -60 65
-104 22z"/>
<path d="M4069 4741 c-45 -45 -35 -101 17 -101 34 0 84 47 84 79 0 57 -54 69
-101 22z"/>
<path d="M415 4685 c-41 -40 -28 -85 25 -85 29 1 52 16 69 48 30 56 -46 86
-94 37z"/>
<path d="M3422 4703 c-24 -9 -44 -61 -32 -83 20 -38 93 -20 110 26 19 48 -24
79 -78 57z"/>
<path d="M2094 4674 c-16 -24 -16 -26 4 -52 12 -15 29 -44 38 -65 19 -44 39
-57 88 -57 25 0 40 7 55 26 12 15 21 32 21 39 0 6 11 22 25 35 31 29 33 75 4
90 -15 9 -33 8 -68 -1 -37 -9 -56 -9 -81 -1 -49 18 -68 15 -86 -14z"/>
<path d="M2962 4684 c-30 -20 -27 -68 4 -72 26 -4 56 30 52 60 -4 28 -26 33
-56 12z"/>
<path d="M5093 4689 c-20 -20 -15 -55 12 -87 14 -17 25 -37 25 -46 0 -27 41
-56 80 -56 37 0 80 32 80 59 0 7 14 29 30 48 36 40 36 47 9 74 -17 17 -27 20
-53 13 -36 -9 -85 -8 -136 1 -23 4 -39 2 -47 -6z"/>
<path d="M5950 4680 c-22 -22 -26 -55 -9 -65 5 -4 21 -4 35 -1 20 5 24 12 24
46 0 46 -17 53 -50 20z"/>
<path d="M12 4660 c1 -16 5 -27 10 -24 11 7 10 54 -1 54 -5 0 -9 -13 -9 -30z"/>
<path d="M67 4652 c-21 -23 -22 -46 -3 -61 30 -25 84 27 65 62 -13 22 -42 22
-62 -1z"/>
<path d="M3053 4644 c-19 -30 -8 -59 22 -59 24 0 58 46 49 68 -10 26 -51 21
-71 -9z"/>
<path d="M551 4629 c-16 -15 -21 -30 -19 -52 2 -27 8 -33 31 -35 55 -7 107 57
77 93 -18 21 -63 18 -89 -6z"/>
<path d="M3541 4626 c-33 -35 -26 -80 12 -84 36 -4 75 21 83 53 13 54 -53 76
-95 31z"/>
<path d="M1129 4581 c-32 -33 -37 -62 -13 -85 31 -32 84 -15 110 35 14 28 14
33 -1 55 -21 33 -59 31 -96 -5z"/>
<path d="M4137 4599 c-9 -5 -24 -24 -33 -40 -14 -28 -14 -33 1 -55 9 -14 25
-24 40 -24 30 0 72 37 80 71 11 46 -41 75 -88 48z"/>
<path d="M16 4562 c-9 -28 -5 -152 5 -158 5 -3 14 7 19 23 6 15 17 40 25 55
20 35 19 54 -5 78 -25 25 -37 25 -44 2z"/>
<path d="M111 4566 c-18 -22 -9 -50 16 -54 34 -5 65 16 61 41 -4 27 -58 36
-77 13z"/>
<path d="M1443 4569 c-12 -4 -26 -17 -32 -28 -15 -27 -14 -84 1 -99 48 -48
122 44 88 107 -12 24 -30 30 -57 20z"/>
<path d="M2000 4548 c-23 -38 -23 -39 -10 -72 15 -41 65 -35 89 11 16 31 14
57 -7 76 -28 25 -50 21 -72 -15z"/>
<path d="M2910 4572 c-18 -6 -11 -48 11 -68 12 -10 30 -38 40 -62 15 -35 23
-43 41 -40 16 2 26 13 34 36 5 17 15 37 22 44 16 16 15 50 -2 73 -11 16 -27
20 -75 20 -33 0 -65 -1 -71 -3z"/>
<path d="M3100 4565 c-20 -24 -8 -50 27 -53 37 -4 71 32 51 55 -14 17 -63 17
-78 -2z"/>
<path d="M5000 4560 c-22 -22 -27 -79 -8 -98 16 -16 53 -15 67 2 21 26 25 81
6 99 -22 22 -41 21 -65 -3z"/>
<path d="M5900 4566 c-18 -18 -11 -42 20 -69 17 -15 30 -36 30 -46 0 -20 25
-51 41 -51 5 0 9 39 9 88 l0 87 -45 1 c-24 0 -49 -4 -55 -10z"/>
<path d="M2350 4551 c-15 -30 -12 -56 11 -85 37 -47 79 -28 79 34 0 60 -65 97
-90 51z"/>
<path d="M4406 4548 c-18 -26 -21 -71 -6 -99 14 -26 54 -24 80 3 22 24 27 87
8 106 -20 20 -65 14 -82 -10z"/>
<path d="M5340 4551 c-5 -11 -10 -28 -10 -39 0 -27 38 -72 60 -72 27 0 53 43
45 72 -17 55 -74 78 -95 39z"/>
<path d="M1262 4517 c-24 -26 -30 -85 -10 -105 20 -20 65 -14 82 10 19 27 21
89 4 106 -19 19 -53 14 -76 -11z"/>
<path d="M4251 4514 c-23 -29 -27 -64 -11 -95 15 -27 64 -25 84 3 19 27 21 89
4 106 -20 20 -55 13 -77 -14z"/>
<path d="M2121 4454 c-37 -47 -23 -104 25 -104 29 0 54 35 54 75 0 58 -44 74
-79 29z"/>
<path d="M2250 4460 c-27 -27 -25 -66 5 -95 28 -28 35 -30 57 -12 16 12 22 33
19 70 -1 19 -35 57 -51 57 -5 0 -19 -9 -30 -20z"/>
<path d="M5111 4454 c-35 -44 -21 -104 23 -104 32 0 56 30 56 71 0 62 -43 79
-79 33z"/>
<path d="M5240 4460 c-22 -22 -24 -37 -10 -74 20 -53 83 -54 96 -2 9 38 -28
96 -62 96 -2 0 -13 -9 -24 -20z"/>
<path d="M96 4451 c-15 -17 -16 -23 -6 -36 26 -31 96 -7 89 31 -6 28 -59 31
-83 5z"/>
<path d="M3091 4456 c-18 -22 -9 -50 16 -54 34 -5 65 16 61 41 -4 27 -58 36
-77 13z"/>
<path d="M465 4290 c-8 -26 7 -45 30 -36 21 8 16 50 -7 54 -10 2 -19 -5 -23
-18z"/>
<path d="M3460 4295 c-16 -19 -5 -47 17 -43 11 2 18 12 18 27 0 29 -17 37 -35
16z"/>
<path d="M400 4270 c-8 -15 -9 -25 -2 -32 17 -17 44 -1 40 24 -4 30 -24 34
-38 8z"/>
<path d="M3397 4284 c-4 -4 -7 -18 -7 -31 0 -18 5 -24 18 -21 10 2 17 12 17
27 0 24 -15 37 -28 25z"/>
<path d="M526 4264 c-20 -20 -20 -33 0 -41 20 -8 49 21 41 41 -8 20 -21 20
-41 0z"/>
<path d="M3523 4273 c-18 -7 -17 -53 1 -53 20 0 39 27 32 45 -6 15 -12 17 -33
8z"/>
<path d="M945 4230 c-12 -37 35 -70 49 -34 8 20 -10 54 -29 54 -7 0 -17 -9
-20 -20z"/>
<path d="M1021 4231 c-21 -39 12 -69 40 -35 9 11 10 20 3 32 -16 24 -31 25
-43 3z"/>
<path d="M3941 4236 c-15 -18 2 -56 25 -56 19 0 30 29 17 48 -14 22 -28 25
-42 8z"/>
<path d="M4023 4243 c-7 -2 -13 -18 -13 -34 0 -38 36 -42 46 -5 9 37 -3 52
-33 39z"/>
<path d="M437 4211 c-15 -10 -30 -21 -34 -24 -9 -9 17 -37 35 -37 8 0 23 -7
33 -16 28 -25 49 -11 49 34 0 62 -29 77 -83 43z"/>
<path d="M3428 4212 c-36 -22 -36 -50 -1 -58 15 -4 34 -13 41 -21 27 -26 42
-15 42 30 0 66 -27 82 -82 49z"/>
<path d="M552 4198 c-16 -16 -15 -35 3 -42 17 -6 48 21 42 38 -5 16 -30 19
-45 4z"/>
<path d="M1553 4195 c-28 -12 -33 -19 -33 -49 0 -82 138 -115 172 -42 14 33
-10 72 -57 92 -41 17 -42 17 -82 -1z"/>
<path d="M3541 4191 c-8 -14 -7 -22 3 -30 18 -15 52 10 43 33 -9 22 -34 20
-46 -3z"/>
<path d="M4547 4198 c-56 -20 -44 -98 19 -124 85 -36 162 36 102 94 -21 19
-70 43 -86 41 -4 0 -19 -5 -35 -11z"/>
<path d="M894 4186 c-10 -26 1 -51 21 -51 23 0 32 30 15 50 -16 19 -29 19 -36
1z"/>
<path d="M2936 4178 c-40 -61 -21 -138 33 -138 55 0 91 84 57 135 -22 33 -69
34 -90 3z"/>
<path d="M3884 4186 c-10 -26 1 -51 21 -51 23 0 32 30 15 50 -16 19 -29 19
-36 1z"/>
<path d="M5932 4180 c-38 -45 -30 -125 14 -136 47 -12 54 -1 54 81 0 73 -1 75
-25 75 -14 0 -33 -9 -43 -20z"/>
<path d="M11 4125 c2 -70 9 -80 27 -40 15 32 15 60 2 86 -20 37 -31 20 -29
-46z"/>
<path d="M1080 4169 c-10 -17 -9 -24 3 -36 12 -13 16 -12 31 2 9 10 16 25 14
34 -5 24 -35 25 -48 0z"/>
<path d="M4077 4184 c-11 -11 -8 -52 3 -59 17 -10 41 16 38 39 -3 21 -28 33
-41 20z"/>
<path d="M985 4162 c-5 -4 -21 -22 -34 -40 -17 -25 -20 -37 -12 -45 15 -15
124 -17 133 -3 4 6 -3 26 -15 46 -22 37 -36 50 -52 50 -5 0 -14 -4 -20 -8z"/>
<path d="M3974 4162 c-5 -4 -20 -24 -32 -44 -28 -45 -20 -52 61 -54 65 -2 82
13 53 45 -9 10 -16 23 -16 29 0 11 -31 32 -47 32 -4 0 -13 -4 -19 -8z"/>
<path d="M2760 4118 c-24 -40 -26 -76 -4 -106 30 -43 87 -23 105 37 16 54 -4
95 -48 99 -28 3 -36 -2 -53 -30z"/>
<path d="M5761 4131 c-47 -47 -32 -133 25 -139 37 -4 63 22 71 72 11 70 -50
113 -96 67z"/>
<path d="M89 4091 c-37 -37 -39 -84 -6 -106 47 -31 117 19 117 83 0 59 -62 72
-111 23z"/>
<path d="M3097 4109 c-21 -12 -47 -61 -47 -88 0 -11 12 -28 26 -37 24 -16 28
-16 60 0 23 10 40 29 50 52 14 32 13 38 -1 60 -17 26 -56 32 -88 13z"/>
<path d="M1741 4035 c-21 -19 -46 -35 -55 -35 -58 0 -113 -74 -102 -135 8 -39
48 -83 85 -92 14 -3 43 -21 64 -39 42 -39 78 -43 107 -14 24 24 25 51 4 113
-15 44 -15 50 5 106 23 66 18 101 -18 120 -32 18 -49 13 -90 -24z"/>
<path d="M4731 4035 c-21 -19 -48 -35 -59 -35 -31 0 -88 -55 -96 -91 -3 -17 0
-44 8 -63 15 -35 59 -76 83 -76 8 0 33 -16 56 -35 90 -77 158 -13 111 104 -15
38 -15 43 5 96 27 71 26 81 -4 110 -33 34 -58 31 -104 -10z"/>
<path d="M1410 4037 c-14 -7 -26 -21 -28 -31 -11 -55 34 -96 106 -96 91 0 96
96 6 130 -33 13 -54 12 -84 -3z"/>
<path d="M4405 4038 c-45 -26 -47 -66 -4 -102 55 -46 149 -29 149 28 0 61 -88
106 -145 74z"/>
<path d="M2904 3981 c-18 -11 -33 -24 -35 -29 -2 -5 -25 -19 -51 -30 -44 -19
-48 -24 -48 -55 0 -44 18 -59 87 -68 47 -6 63 -14 97 -48 47 -46 76 -51 107
-20 16 16 19 27 13 47 -4 15 -9 52 -10 82 -1 30 -3 61 -3 68 -1 8 -14 27 -30
43 -35 35 -81 38 -127 10z"/>
<path d="M5898 3985 c-16 -9 -28 -20 -28 -26 0 -5 -17 -17 -37 -26 -50 -20
-73 -41 -73 -68 0 -39 24 -57 85 -66 49 -6 64 -14 99 -48 23 -23 45 -41 49
-41 4 0 6 64 5 143 l-3 142 -35 2 c-19 2 -47 -4 -62 -12z"/>
<path d="M17 3853 c3 -76 7 -140 9 -141 1 -2 12 -1 24 3 28 9 40 42 28 80 -5
16 -9 55 -8 86 0 42 -4 62 -20 82 -12 15 -25 27 -30 27 -5 0 -6 -62 -3 -137z"/>
<path d="M2340 3945 c-23 -24 -43 -35 -62 -35 -26 0 -68 -30 -68 -47 0 -17 18
-33 51 -47 20 -8 41 -22 49 -30 18 -23 76 -20 100 4 15 15 20 32 19 63 -1 23
2 54 5 68 5 18 2 31 -9 43 -25 24 -48 20 -85 -19z"/>
<path d="M5331 3945 c-20 -22 -41 -35 -57 -35 -41 0 -64 -18 -64 -49 0 -24 6
-31 38 -44 21 -8 44 -22 51 -31 18 -21 74 -20 99 2 16 13 21 34 25 93 3 50 1
81 -6 88 -20 20 -54 11 -86 -24z"/>
<path d="M169 3921 c-50 -51 -35 -121 26 -121 27 0 85 64 85 93 0 60 -63 75
-111 28z"/>
<path d="M3159 3921 c-55 -56 -30 -133 38 -116 56 14 95 99 61 133 -22 22 -68
14 -99 -17z"/>
<path d="M2486 3904 c-22 -22 -20 -41 9 -69 26 -27 54 -32 73 -13 19 19 14 47
-13 73 -28 29 -47 31 -69 9z"/>
<path d="M5484 3912 c-32 -21 -11 -87 31 -98 54 -14 75 49 29 85 -28 22 -42
25 -60 13z"/>
<path d="M1433 3855 c-40 -17 -67 -57 -58 -85 11 -34 66 -53 111 -37 75 25 93
91 34 122 -35 18 -46 18 -87 0z"/>
<path d="M4420 3853 c-66 -34 -73 -95 -13 -120 43 -18 93 -4 123 34 25 31 25
45 3 72 -25 30 -71 35 -113 14z"/>
<path d="M628 3850 c-9 -6 -20 -25 -23 -43 -4 -17 -20 -46 -37 -63 -20 -21
-29 -40 -26 -55 3 -23 7 -24 77 -25 60 -2 76 1 92 17 25 25 24 71 -1 94 -11
10 -20 26 -20 36 0 17 -25 49 -38 49 -4 0 -15 -5 -24 -10z"/>
<path d="M742 3848 c-17 -17 -15 -32 7 -52 23 -21 70 -18 85 6 23 37 -59 79
-92 46z"/>
<path d="M3617 3845 c-9 -8 -18 -28 -22 -43 -3 -16 -19 -42 -35 -57 -56 -54
-36 -82 59 -83 49 0 67 4 82 19 25 25 24 64 -1 96 -11 14 -20 32 -20 39 0 14
-27 44 -40 44 -5 0 -15 -7 -23 -15z"/>
<path d="M3732 3848 c-18 -18 -14 -36 12 -54 30 -19 65 -15 80 8 23 37 -59 79
-92 46z"/>
<path d="M2442 3778 c-17 -17 -15 -31 9 -62 26 -33 74 -36 84 -5 15 46 -60
100 -93 67z"/>
<path d="M5430 3775 c-26 -31 20 -89 67 -83 21 2 29 9 31 28 6 51 -67 92 -98
55z"/>
<path d="M2208 3745 c-14 -30 -2 -72 25 -89 44 -28 77 54 38 93 -28 28 -49 26
-63 -4z"/>
<path d="M5206 3754 c-20 -20 -20 -53 0 -82 17 -24 43 -29 62 -10 18 18 14 73
-6 91 -23 21 -36 21 -56 1z"/>
<path d="M772 3734 c-18 -12 -20 -19 -12 -34 17 -31 49 -44 76 -31 30 13 31
45 2 65 -28 20 -38 20 -66 0z"/>
<path d="M3768 3739 c-26 -15 -22 -46 7 -65 53 -35 104 25 53 60 -26 18 -36
19 -60 5z"/>
<path d="M2340 3714 c-12 -30 4 -70 33 -88 15 -9 22 -6 38 13 32 39 9 101 -37
101 -17 0 -28 -8 -34 -26z"/>
<path d="M5342 3728 c-19 -19 -15 -73 7 -92 43 -39 90 19 60 73 -16 29 -48 38
-67 19z"/>
<path d="M1570 3709 c-53 -22 -76 -69 -52 -107 13 -19 63 -30 99 -20 32 8 73
50 73 73 0 42 -71 74 -120 54z"/>
<path d="M4560 3709 c-59 -24 -79 -79 -42 -112 50 -45 162 -5 162 58 0 44 -68
76 -120 54z"/>
<path d="M711 3643 c-12 -22 11 -69 37 -75 48 -13 69 35 32 72 -25 25 -56 26
-69 3z"/>
<path d="M3707 3653 c-27 -26 14 -87 55 -81 49 7 24 88 -27 88 -12 0 -25 -3
-28 -7z"/>
<path d="M597 3613 c-30 -29 27 -102 64 -82 24 12 24 51 1 72 -19 17 -53 22
-65 10z"/>
<path d="M3584 3606 c-9 -25 0 -48 26 -68 47 -34 86 5 52 52 -22 29 -69 39
-78 16z"/>
<path d="M1158 3455 c-10 -21 -9 -29 5 -42 13 -14 19 -14 32 -3 21 17 16 64
-7 68 -11 2 -22 -6 -30 -23z"/>
<path d="M2815 3460 c-7 -23 1 -40 20 -40 8 0 17 5 20 10 9 15 -4 50 -20 50
-8 0 -16 -9 -20 -20z"/>
<path d="M4151 3458 c-9 -24 2 -58 19 -58 5 0 17 11 26 25 13 20 14 28 4 40
-18 22 -39 18 -49 -7z"/>
<path d="M5807 3465 c-9 -23 3 -45 25 -45 15 0 19 6 16 27 -3 31 -32 43 -41
18z"/>
<path d="M1074 3436 c-7 -31 1 -46 26 -46 21 0 37 40 25 59 -12 21 -44 12 -51
-13z"/>
<path d="M1772 3438 c3 -24 34 -36 50 -20 11 11 -16 42 -38 42 -10 0 -14 -8
-12 -22z"/>
<path d="M4070 3445 c-17 -21 -8 -50 17 -53 17 -3 24 3 29 22 10 42 -19 63
-46 31z"/>
<path d="M4764 3445 c-8 -20 4 -35 26 -35 28 0 36 21 15 37 -24 17 -34 17 -41
-2z"/>
<path d="M2752 3428 c2 -15 11 -24 26 -26 20 -3 23 0 20 20 -2 15 -11 24 -26
26 -20 3 -23 0 -20 -20z"/>
<path d="M2885 3440 c-11 -17 5 -51 23 -48 23 4 23 52 0 56 -9 2 -19 -2 -23
-8z"/>
<path d="M5740 3442 c0 -24 14 -42 32 -42 29 0 20 44 -9 48 -13 2 -23 -1 -23
-6z"/>
<path d="M5874 3435 c-9 -22 22 -53 37 -38 15 15 7 47 -14 51 -9 2 -20 -4 -23
-13z"/>
<path d="M1238 3429 c-10 -5 -18 -21 -18 -34 0 -20 5 -25 25 -25 31 0 52 34
34 56 -13 16 -18 17 -41 3z"/>
<path d="M2114 3430 c-38 -15 -74 -68 -74 -109 0 -94 117 -98 156 -6 20 49 18
72 -11 100 -26 26 -37 29 -71 15z"/>
<path d="M4226 3424 c-25 -25 -20 -54 9 -54 31 0 52 34 34 56 -15 18 -24 18
-43 -2z"/>
<path d="M5100 3427 c-58 -29 -90 -126 -52 -159 27 -24 46 -27 80 -12 64 27
94 123 50 164 -25 23 -43 25 -78 7z"/>
<path d="M1711 3406 c-17 -20 26 -51 46 -34 11 9 11 14 -3 29 -20 23 -28 23
-43 5z"/>
<path d="M2333 3405 c-69 -30 -96 -126 -46 -165 42 -33 96 -11 129 52 21 40
17 76 -11 103 -28 29 -29 29 -72 10z"/>
<path d="M4707 3413 c-13 -12 -7 -32 12 -42 28 -15 48 11 26 33 -18 17 -28 20
-38 9z"/>
<path d="M5323 3405 c-38 -16 -62 -50 -70 -98 -4 -29 -1 -40 21 -62 21 -21 33
-25 54 -20 45 11 84 57 89 107 5 40 2 47 -22 66 -32 26 -30 25 -72 7z"/>
<path d="M2807 3393 c-3 -5 -8 -27 -12 -49 -8 -50 5 -63 40 -40 13 9 34 16 45
16 24 0 41 31 21 38 -7 2 -21 13 -29 23 -16 19 -57 26 -65 12z"/>
<path d="M5802 3388 c-6 -7 -13 -29 -17 -49 -8 -45 6 -57 40 -35 13 9 34 16
45 16 34 0 36 29 4 56 -32 26 -57 30 -72 12z"/>
<path d="M1118 3363 c-27 -13 -48 -28 -48 -33 0 -14 30 -40 48 -40 9 0 29 -12
44 -27 35 -34 51 -22 54 40 2 80 -25 97 -98 60z"/>
<path d="M1806 3380 c-27 -8 -45 -25 -46 -42 0 -4 13 -21 29 -39 35 -38 61
-34 61 10 0 16 5 33 10 36 6 3 10 15 10 26 0 21 -16 23 -64 9z"/>
<path d="M2720 3372 c0 -26 27 -49 41 -35 17 17 6 48 -19 51 -16 3 -22 -2 -22
-16z"/>
<path d="M4120 3369 c-19 -10 -40 -23 -47 -29 -18 -15 -5 -39 26 -46 14 -4 38
-18 53 -32 22 -20 30 -23 42 -13 14 12 17 96 3 118 -12 19 -42 20 -77 2z"/>
<path d="M4793 3379 c-42 -12 -44 -47 -7 -84 32 -32 54 -26 54 14 0 16 5 33
10 36 6 3 10 15 10 26 0 21 -15 23 -67 8z"/>
<path d="M5710 3372 c0 -26 27 -49 41 -35 17 17 6 48 -19 51 -16 3 -22 -2 -22
-16z"/>
<path d="M425 3350 c-47 -29 -54 -30 -127 -24 -73 6 -78 5 -102 -19 -44 -44
-32 -87 39 -133 14 -9 35 -34 46 -55 23 -46 63 -69 119 -69 69 0 120 51 120
119 0 17 14 52 30 78 36 57 37 77 5 108 -32 33 -69 31 -130 -5z"/>
<path d="M3417 3349 c-47 -29 -52 -30 -126 -24 -87 8 -116 -6 -127 -61 -5 -26
-1 -35 30 -61 19 -17 41 -35 48 -40 7 -4 22 -25 32 -46 24 -46 65 -70 119 -69
67 1 114 47 121 118 2 21 16 59 30 84 32 56 32 75 1 105 -32 33 -69 31 -128
-6z"/>
<path d="M1256 3329 c-18 -26 -11 -49 15 -49 22 0 50 37 42 56 -8 21 -40 17
-57 -7z"/>
<path d="M1690 3330 c0 -17 5 -21 28 -18 16 2 27 9 27 18 0 9 -11 16 -27 18
-23 3 -28 -1 -28 -18z"/>
<path d="M4250 3335 c-16 -19 -9 -49 12 -53 19 -4 53 42 43 58 -9 15 -41 12
-55 -5z"/>
<path d="M4687 3344 c-17 -18 -6 -35 21 -32 16 2 27 9 27 18 0 16 -36 26 -48
14z"/>
<path d="M1723 3274 c-5 -14 11 -34 27 -34 3 0 11 4 19 9 19 12 6 41 -19 41
-11 0 -23 -7 -27 -16z"/>
<path d="M4713 3274 c-5 -14 11 -34 27 -34 3 0 11 4 19 9 19 12 6 41 -19 41
-11 0 -23 -7 -27 -16z"/>
<path d="M2438 3234 c-28 -15 -58 -61 -58 -89 0 -48 80 -71 140 -40 30 15 60
61 60 90 0 48 -84 71 -142 39z"/>
<path d="M5426 3231 c-55 -36 -70 -87 -36 -121 52 -52 180 3 180 77 0 58 -84
83 -144 44z"/>
<path d="M620 3200 c-52 -52 3 -180 77 -180 81 0 83 143 3 185 -39 20 -56 19
-80 -5z"/>
<path d="M3610 3200 c-24 -24 -26 -79 -5 -120 15 -30 61 -60 90 -60 27 0 55
38 55 75 0 93 -87 158 -140 105z"/>
<path d="M2165 3183 c-18 -10 -54 -17 -88 -17 -49 -1 -62 -5 -78 -25 -39 -48
-17 -96 62 -137 44 -22 54 -33 78 -87 33 -73 48 -88 92 -89 42 -1 64 26 73 92
4 28 16 65 26 83 40 65 13 154 -55 183 -44 18 -73 17 -110 -3z"/>
<path d="M5155 3183 c-18 -10 -54 -17 -88 -17 -50 -1 -62 -5 -79 -26 -14 -17
-18 -33 -14 -54 8 -39 21 -53 76 -81 54 -27 61 -35 84 -95 25 -63 43 -80 86
-80 49 0 69 24 77 91 3 30 14 65 25 78 26 34 24 110 -4 146 -23 30 -74 55
-110 55 -13 -1 -36 -8 -53 -17z"/>
<path d="M104 3097 c-20 -18 -28 -35 -32 -75 -4 -47 -2 -54 26 -82 38 -38 56
-38 93 -1 24 25 29 37 29 81 0 41 -5 56 -25 75 -30 31 -56 32 -91 2z"/>
<path d="M3095 3096 c-46 -46 -45 -129 2 -166 34 -27 49 -25 84 9 24 25 29 37
29 81 0 86 -63 128 -115 76z"/>
<path d="M1650 3085 c-10 -13 -10 -19 5 -35 22 -24 53 -26 62 -3 4 10 -2 23
-16 35 -28 22 -35 22 -51 3z"/>
<path d="M4653 3093 c-17 -6 -16 -38 2 -53 20 -16 50 -8 50 14 0 21 -34 46
-52 39z"/>
<path d="M1577 3043 c-14 -13 -6 -43 14 -53 41 -22 66 11 33 44 -16 17 -36 21
-47 9z"/>
<path d="M4567 3043 c-14 -13 -6 -43 14 -53 27 -15 49 -6 49 19 0 27 -46 52
-63 34z"/>
<path d="M484 3019 c-20 -23 -23 -84 -4 -119 12 -23 67 -60 88 -60 25 0 62 48
62 80 0 90 -95 155 -146 99z"/>
<path d="M3480 3020 c-43 -43 -14 -144 49 -170 29 -12 35 -11 59 7 47 35 39
120 -16 163 -32 26 -67 25 -92 0z"/>
<path d="M2439 2995 c-68 -46 -66 -113 4 -138 55 -20 137 37 137 96 0 66 -74
88 -141 42z"/>
<path d="M5442 3003 c-34 -17 -62 -58 -62 -92 0 -23 44 -61 72 -61 37 0 88 29
108 62 26 43 25 54 -5 83 -28 29 -66 32 -113 8z"/>
<path d="M308 2981 c-29 -26 -33 -35 -33 -79 0 -115 114 -140 146 -33 12 41 0
99 -24 119 -31 25 -56 23 -89 -7z"/>
<path d="M1691 3000 c-56 -13 -69 -61 -26 -98 14 -12 25 -27 25 -33 0 -6 10
-9 23 -7 17 2 23 11 25 38 2 19 10 43 19 52 8 9 13 25 11 35 -4 21 -28 25 -77
13z"/>
<path d="M3320 2997 c-34 -17 -63 -79 -55 -116 16 -75 74 -102 120 -57 46 46
42 136 -9 171 -25 18 -25 18 -56 2z"/>
<path d="M4690 3003 c-32 -6 -60 -31 -60 -53 0 -9 15 -34 34 -55 41 -46 66
-43 66 8 0 19 7 40 15 47 9 7 15 23 13 34 -3 22 -23 27 -68 19z"/>
<path d="M1550 2955 c-15 -18 2 -45 30 -45 28 0 45 27 30 45 -7 8 -20 15 -30
15 -10 0 -23 -7 -30 -15z"/>
<path d="M4540 2954 c-11 -12 -11 -18 3 -31 21 -21 67 -10 67 16 0 31 -48 42
-70 15z"/>
<path d="M958 2898 c-49 -42 -61 -94 -32 -136 52 -75 198 46 153 127 -20 36
-83 41 -121 9z"/>
<path d="M3958 2902 c-30 -18 -58 -67 -58 -101 0 -30 35 -61 70 -61 71 0 138
113 95 160 -22 25 -70 26 -107 2z"/>
<path d="M1587 2883 c-13 -12 -7 -41 9 -47 24 -9 31 -8 49 10 12 12 13 19 4
30 -12 15 -51 19 -62 7z"/>
<path d="M4574 2875 c-7 -17 12 -45 30 -45 7 0 21 6 31 14 16 12 17 16 6 30
-17 20 -60 21 -67 1z"/>
<path d="M1189 2855 c-35 -19 -59 -58 -59 -95 0 -52 16 -70 61 -70 58 0 109
51 109 107 0 66 -50 91 -111 58z"/>
<path d="M4178 2854 c-52 -27 -76 -114 -42 -148 8 -9 31 -16 49 -16 85 0 146
129 81 172 -18 12 -59 8 -88 -8z"/>
<path d="M2707 2803 c-13 -12 -7 -32 12 -42 28 -15 48 11 26 33 -18 17 -28 20
-38 9z"/>
<path d="M5693 2794 c-4 -11 1 -22 12 -31 16 -11 21 -11 35 3 13 14 13 17 -4
30 -26 18 -35 18 -43 -2z"/>
<path d="M2642 2757 c-17 -20 23 -56 41 -38 8 8 9 16 1 28 -14 23 -29 26 -42
10z"/>
<path d="M5633 2754 c-3 -8 2 -23 11 -32 15 -15 17 -15 32 -1 14 15 14 18 -1
33 -21 20 -34 20 -42 0z"/>
<path d="M2734 2729 c-44 -13 -49 -42 -14 -81 34 -37 60 -32 60 10 0 15 5 33
11 39 14 14 5 43 -13 42 -7 0 -27 -5 -44 -10z"/>
<path d="M5735 2733 c-50 -13 -60 -54 -21 -90 34 -32 53 -29 59 10 3 17 9 44
12 60 8 28 -1 32 -50 20z"/>
<path d="M2012 2684 c-24 -17 -29 -53 -10 -72 30 -30 118 -2 118 38 0 45 -63
66 -108 34z"/>
<path d="M2620 2680 c0 -17 5 -21 28 -18 16 2 27 9 27 18 0 9 -11 16 -27 18
-23 3 -28 -1 -28 -18z"/>
<path d="M5002 2684 c-27 -19 -29 -60 -3 -74 50 -26 111 0 111 48 0 40 -66 56
-108 26z"/>
<path d="M5617 2693 c-13 -12 -7 -31 12 -36 26 -6 45 7 38 27 -6 16 -38 22
-50 9z"/>
<path d="M1280 2674 c-37 -25 -50 -45 -50 -75 0 -80 134 -92 180 -16 26 42 25
53 -5 82 -29 30 -88 34 -125 9z"/>
<path d="M4276 2675 c-76 -40 -75 -122 1 -141 60 -15 143 38 143 92 0 52 -83
80 -144 49z"/>
<path d="M422 2664 c-16 -11 -22 -24 -20 -42 3 -23 8 -27 40 -30 27 -2 43 3
57 17 25 25 26 35 5 55 -20 20 -53 20 -82 0z"/>
<path d="M1010 2669 c-14 -6 -52 -7 -86 -4 -58 7 -62 6 -82 -20 -40 -51 -26
-85 66 -155 25 -19 36 -39 48 -85 18 -71 41 -98 84 -98 41 0 69 29 77 79 3 21
16 50 29 64 67 73 53 169 -30 210 -46 22 -68 24 -106 9z"/>
<path d="M3410 2660 c-43 -43 -9 -82 55 -66 33 8 53 49 35 71 -18 21 -66 19
-90 -5z"/>
<path d="M4000 2669 c-13 -5 -48 -7 -77 -3 -125 15 -151 -83 -42 -161 38 -27
50 -43 59 -77 20 -77 33 -100 64 -113 51 -22 93 6 103 68 3 21 16 51 28 65 50
61 57 104 27 161 -31 58 -101 84 -162 60z"/>
<path d="M2182 2639 c-9 -17 -29 -45 -44 -62 -59 -67 -12 -156 77 -145 11 1
37 -2 58 -6 69 -15 93 45 38 98 -20 19 -31 42 -36 74 -8 56 -20 72 -52 72 -17
0 -29 -10 -41 -31z"/>
<path d="M5176 2648 c-9 -12 -16 -26 -16 -31 0 -5 -13 -25 -30 -44 -38 -43
-38 -76 0 -115 23 -23 38 -29 63 -27 17 2 50 -1 71 -6 34 -7 42 -5 57 14 21
26 16 45 -21 86 -18 19 -29 46 -33 73 -3 23 -11 49 -17 57 -18 22 -57 18 -74
-7z"/>
<path d="M2653 2624 c-5 -14 11 -34 27 -34 3 0 11 4 19 9 19 12 6 41 -19 41
-11 0 -23 -7 -27 -16z"/>
<path d="M5643 2624 c-5 -14 11 -34 27 -34 3 0 11 4 19 9 19 12 6 41 -19 41
-11 0 -23 -7 -27 -16z"/>
<path d="M322 2583 c-26 -10 -33 -41 -17 -79 10 -25 13 -52 9 -89 -6 -47 -4
-54 15 -64 24 -13 45 -5 75 28 11 12 24 21 31 21 22 0 45 36 45 72 0 33 -24
68 -46 68 -5 0 -29 11 -54 24 -25 13 -51 21 -58 19z"/>
<path d="M511 2564 c-28 -36 -13 -64 33 -64 37 0 66 25 66 57 0 41 -69 45 -99
7z"/>
<path d="M3506 2571 c-10 -11 -16 -30 -14 -43 2 -18 10 -24 36 -26 43 -4 74
22 70 57 -3 22 -9 26 -39 29 -25 2 -40 -3 -53 -17z"/>
<path d="M3290 2560 c-8 -15 -6 -29 5 -57 11 -27 14 -52 9 -90 -6 -50 -5 -53
20 -64 24 -11 29 -9 56 16 16 15 39 33 52 39 36 18 52 60 36 93 -7 14 -20 30
-28 34 -110 56 -133 60 -150 29z"/>
<path d="M1972 2534 c-27 -19 -29 -60 -3 -74 47 -24 111 2 111 45 0 42 -64 60
-108 29z"/>
<path d="M4962 2534 c-44 -31 -19 -84 40 -84 52 0 88 56 56 88 -17 17 -69 15
-96 -4z"/>
<path d="M2917 2462 c-30 -33 -22 -80 22 -123 45 -45 88 -52 121 -19 33 33 26
76 -19 121 -44 45 -95 53 -124 21z"/>
<path d="M5904 2456 c-24 -38 -12 -87 32 -125 58 -51 65 -44 62 57 l-3 87 -37
3 c-30 3 -40 -1 -54 -22z"/>
<path d="M10 2385 c0 -78 2 -85 20 -85 26 0 60 34 60 61 0 34 -49 109 -72 109
-4 0 -8 -38 -8 -85z"/>
<path d="M516 2454 c-21 -20 -20 -30 4 -54 22 -22 69 -27 88 -8 18 18 14 56
-7 68 -29 15 -67 12 -85 -6z"/>
<path d="M3512 2458 c-17 -17 -15 -42 6 -61 40 -37 117 -3 93 41 -17 32 -75
44 -99 20z"/>
<path d="M1253 2440 c-59 -35 -69 -86 -25 -120 38 -30 102 -23 143 16 77 74
-22 163 -118 104z"/>
<path d="M4254 2446 c-35 -16 -64 -51 -64 -79 0 -10 12 -30 26 -44 22 -22 32
-25 71 -20 31 3 54 13 74 33 75 72 -5 154 -107 110z"/>
<path d="M2035 2415 c-40 -39 -26 -95 24 -95 20 0 71 53 71 74 0 50 -55 62
-95 21z"/>
<path d="M5045 2429 c-50 -28 -61 -82 -21 -100 50 -23 117 45 89 90 -13 20
-42 24 -68 10z"/>
<path d="M1562 2394 c-28 -20 -26 -58 4 -62 28 -4 61 34 48 55 -15 24 -26 25
-52 7z"/>
<path d="M2700 2390 c-43 -43 -7 -132 63 -159 35 -13 40 -13 65 6 53 39 28
129 -43 159 -46 19 -61 18 -85 -6z"/>
<path d="M4549 2389 c-39 -39 0 -81 42 -43 23 21 25 50 3 58 -22 8 -22 8 -45
-15z"/>
<path d="M5705 2398 c-27 -15 -35 -28 -35 -58 0 -68 84 -133 141 -110 67 28
45 126 -38 169 -27 14 -42 14 -68 -1z"/>
<path d="M1649 2359 c-39 -39 0 -81 42 -43 23 21 25 50 3 58 -22 8 -22 8 -45
-15z"/>
<path d="M2177 2369 c-48 -28 -39 -99 11 -99 41 0 74 35 70 73 -3 27 -7 32
-33 34 -16 2 -38 -2 -48 -8z"/>
<path d="M4640 2360 c-22 -22 -24 -29 -11 -49 14 -22 60 -5 67 25 4 17 2 29
-7 35 -20 13 -27 11 -49 -11z"/>
<path d="M5167 2368 c-23 -19 -37 -61 -26 -81 10 -17 44 -22 74 -11 26 10 47
61 35 84 -12 23 -57 27 -83 8z"/>
<path d="M443 2348 c-22 -29 -23 -38 -3 -58 38 -38 115 -17 103 29 -9 33 -80
54 -100 29z"/>
<path d="M3432 2348 c-18 -18 -14 -56 7 -68 40 -21 101 -2 101 31 0 36 -81 64
-108 37z"/>
<path d="M1506 2293 c-12 -12 -6 -40 13 -57 11 -10 23 -32 27 -50 12 -56 48
-62 69 -12 8 19 19 37 25 41 16 10 12 50 -7 68 -18 15 -114 23 -127 10z"/>
<path d="M1693 2290 c-26 -11 -31 -48 -8 -56 22 -9 62 3 68 21 4 8 -1 21 -9
30 -17 17 -20 17 -51 5z"/>
<path d="M4496 2293 c-12 -13 -5 -36 19 -65 14 -16 25 -37 25 -47 0 -20 19
-41 37 -41 7 0 19 12 26 28 6 15 17 33 24 40 18 18 16 57 -2 76 -15 14 -116
21 -129 9z"/>
<path d="M4679 2282 c-32 -27 -20 -54 22 -50 43 4 61 34 35 54 -25 18 -29 18
-57 -4z"/>
<path d="M47 2218 l-38 -10 1 -164 c1 -90 6 -164 11 -164 13 0 25 29 38 90 10
47 19 61 66 103 46 41 55 54 55 82 0 64 -46 86 -133 63z"/>
<path d="M2883 2216 c-81 -37 -95 -144 -28 -216 13 -14 28 -42 34 -64 14 -52
38 -76 76 -76 44 0 71 33 85 106 11 56 17 65 57 95 25 19 49 42 54 51 16 29
10 77 -12 99 -18 18 -27 20 -67 13 -53 -8 -70 -8 -127 0 -26 4 -52 1 -72 -8z"/>
<path d="M5871 2212 c-37 -20 -71 -73 -71 -110 0 -32 29 -90 49 -102 9 -4 23
-31 30 -58 16 -62 38 -84 83 -80 l33 3 3 173 2 172 -25 10 c-38 15 -66 12
-104 -8z"/>
<path d="M2586 2197 c-30 -30 -31 -38 -11 -77 21 -40 91 -66 138 -51 92 31 55
138 -52 149 -43 4 -53 1 -75 -21z"/>
<path d="M5582 2204 c-34 -23 -30 -75 8 -107 40 -34 80 -41 124 -23 46 19 57
56 29 94 -38 51 -115 68 -161 36z"/>
<path d="M1668 2189 c-24 -14 -23 -46 2 -54 43 -14 84 22 59 51 -13 16 -37 17
-61 3z"/>
<path d="M4668 2193 c-23 -6 -31 -34 -14 -51 30 -31 92 11 65 44 -12 14 -20
15 -51 7z"/>
<path d="M962 2113 c3 -31 32 -43 41 -18 9 23 -3 45 -25 45 -15 0 -19 -6 -16
-27z"/>
<path d="M2147 2134 c-22 -22 16 -60 48 -48 26 10 15 48 -15 52 -14 2 -29 0
-33 -4z"/>
<path d="M3950 2126 c0 -25 12 -46 25 -46 19 0 27 17 20 40 -7 23 -45 28 -45
6z"/>
<path d="M5133 2124 c-4 -11 1 -22 12 -30 24 -18 40 -18 55 1 10 12 10 18 0
30 -17 20 -59 19 -67 -1z"/>
<path d="M1034 2115 c-9 -21 3 -45 21 -45 21 0 30 27 15 45 -16 19 -29 19 -36
0z"/>
<path d="M2057 2123 c-4 -3 -7 -13 -7 -22 0 -8 -12 -32 -26 -53 -35 -50 -23
-68 44 -60 26 2 53 9 60 15 16 13 15 52 -2 69 -7 8 -17 24 -20 36 -7 21 -35
30 -49 15z"/>
<path d="M4024 2115 c-8 -21 3 -45 20 -45 20 0 29 16 21 40 -7 23 -33 27 -41
5z"/>
<path d="M5047 2123 c-4 -3 -7 -16 -7 -28 0 -12 -11 -34 -25 -49 -19 -21 -23
-31 -15 -45 8 -15 18 -18 57 -13 57 6 73 16 73 48 0 49 -59 111 -83 87z"/>
<path d="M900 2090 c0 -26 38 -47 46 -25 9 23 -3 45 -26 45 -13 0 -20 -7 -20
-20z"/>
<path d="M3893 2094 c-9 -23 25 -48 43 -33 10 8 11 16 3 30 -12 23 -37 25 -46
3z"/>
<path d="M971 2056 c-18 -21 -21 -83 -6 -96 10 -8 18 -6 32 8 10 11 30 22 46
26 33 8 35 33 3 46 -13 5 -27 14 -31 19 -9 15 -30 14 -44 -3z"/>
<path d="M3962 2058 c-14 -18 -19 -85 -6 -98 7 -7 18 -5 35 9 13 10 33 20 44
22 33 7 29 35 -8 58 -40 24 -51 26 -65 9z"/>
<path d="M2164 2045 c-9 -21 14 -45 43 -45 28 0 40 24 23 45 -16 19 -59 19
-66 0z"/>
<path d="M5160 2045 c-17 -20 3 -45 37 -45 28 0 40 24 23 45 -16 19 -44 19
-60 0z"/>
<path d="M882 2018 c2 -15 11 -24 26 -26 20 -3 23 0 20 20 -2 15 -11 24 -26
26 -20 3 -23 0 -20 -20z"/>
<path d="M3872 2018 c2 -15 11 -24 26 -26 20 -3 23 0 20 20 -2 15 -11 24 -26
26 -20 3 -23 0 -20 -20z"/>
<path d="M2143 1993 c-17 -6 -16 -38 2 -53 20 -16 50 -8 50 14 0 21 -34 46
-52 39z"/>
<path d="M2632 1984 c-40 -28 -25 -92 28 -119 88 -45 180 11 140 86 -25 45
-123 65 -168 33z"/>
<path d="M5130 1984 c-19 -22 -1 -48 34 -52 24 -3 27 0 24 19 -2 12 -12 28
-24 36 -18 12 -23 11 -34 -3z"/>
<path d="M5620 1980 c-54 -54 5 -130 100 -130 77 0 105 66 51 121 -25 24 -37
29 -80 29 -38 0 -56 -5 -71 -20z"/>
<path d="M402 1964 c-27 -18 -28 -45 -4 -67 52 -48 149 22 100 71 -17 17 -69
15 -96 -4z"/>
<path d="M3389 1959 c-25 -25 -21 -49 12 -68 33 -18 74 -8 95 24 16 24 15 27
-1 45 -24 27 -79 26 -106 -1z"/>
<path d="M2053 1944 c-8 -22 9 -48 34 -52 28 -4 38 26 17 49 -21 23 -43 24
-51 3z"/>
<path d="M5043 1944 c-9 -24 10 -49 38 -49 29 0 36 26 14 49 -21 21 -44 21
-52 0z"/>
<path d="M582 1938 c-7 -7 -12 -18 -12 -25 0 -7 -16 -30 -35 -52 -43 -47 -47
-90 -10 -126 17 -18 35 -25 63 -25 21 0 53 -5 71 -11 27 -9 35 -8 51 6 27 25
25 49 -9 87 -20 23 -30 48 -34 82 -7 65 -51 98 -85 64z"/>
<path d="M3576 1934 c-9 -8 -16 -19 -16 -24 0 -4 -16 -27 -35 -50 -64 -77 -39
-138 61 -150 33 -4 69 -10 81 -14 25 -8 53 16 53 46 0 11 -13 36 -30 55 -22
24 -30 44 -30 71 0 67 -47 104 -84 66z"/>
<path d="M1245 1830 c-14 -15 -16 -26 -8 -57 5 -24 5 -52 -1 -75 -9 -32 -7
-42 10 -65 43 -58 113 -64 157 -13 9 11 25 20 35 20 32 0 62 29 62 61 0 25 -6
33 -35 45 -19 7 -43 14 -54 14 -11 0 -39 20 -62 45 -46 49 -76 56 -104 25z"/>
<path d="M4240 1830 c-15 -15 -19 -27 -13 -47 3 -15 5 -41 4 -58 -6 -75 -3
-87 22 -113 34 -33 85 -35 127 -3 17 12 47 28 67 35 81 28 50 116 -41 116 -14
0 -38 17 -64 45 -45 49 -71 56 -102 25z"/>
<path d="M373 1830 c-59 -24 -39 -94 26 -92 55 1 92 52 58 80 -19 16 -60 22
-84 12z"/>
<path d="M3358 1824 c-52 -28 -29 -88 33 -86 60 2 90 56 47 86 -28 20 -45 20
-80 0z"/>
<path d="M1081 1754 c-48 -40 -39 -104 15 -104 34 0 84 47 84 79 0 55 -49 68
-99 25z"/>
<path d="M4069 1751 c-30 -31 -38 -68 -17 -89 35 -35 118 11 118 66 0 58 -53
70 -101 23z"/>
<path d="M424 1702 c-28 -22 -39 -59 -24 -77 14 -17 53 -19 80 -5 24 13 41 61
28 83 -12 22 -57 21 -84 -1z"/>
<path d="M3413 1698 c-31 -35 -35 -46 -23 -68 15 -29 65 -26 95 5 28 27 30 37
15 66 -15 26 -61 25 -87 -3z"/>
<path d="M2094 1684 c-16 -24 -16 -26 4 -52 12 -15 29 -44 39 -66 17 -41 67
-71 100 -59 28 10 63 45 63 63 0 9 11 27 25 40 31 29 33 75 4 90 -15 9 -31 8
-65 -4 -39 -13 -48 -13 -79 0 -49 20 -72 18 -91 -12z"/>
<path d="M2973 1699 c-23 -8 -40 -50 -28 -68 18 -31 75 3 75 44 0 27 -16 36
-47 24z"/>
<path d="M5092 1698 c-19 -19 -14 -54 11 -85 13 -15 27 -41 31 -56 9 -37 63
-62 102 -47 31 12 53 37 54 61 0 9 9 24 21 35 32 29 41 51 29 73 -15 28 -41
33 -88 17 -37 -13 -46 -13 -77 -1 -42 18 -67 19 -83 3z"/>
<path d="M5962 1697 c-25 -11 -40 -53 -24 -69 5 -5 20 -8 33 -6 19 2 25 10 27
37 4 41 -6 52 -36 38z"/>
<path d="M12 1670 c0 -17 4 -28 9 -25 11 8 12 55 1 55 -5 0 -9 -14 -10 -30z"/>
<path d="M67 1662 c-24 -26 -21 -59 5 -68 31 -9 73 38 58 67 -13 24 -42 25
-63 1z"/>
<path d="M3060 1660 c-24 -24 -25 -43 -5 -60 19 -16 40 -8 61 25 13 20 14 28
4 40 -17 20 -36 19 -60 -5z"/>
<path d="M553 1638 c-27 -30 -32 -49 -21 -70 21 -42 118 -1 118 50 0 45 -62
57 -97 20z"/>
<path d="M3546 1639 c-21 -16 -26 -28 -24 -53 3 -28 7 -31 39 -34 30 -3 41 2
58 24 51 64 -8 114 -73 63z"/>
<path d="M1137 1600 c-48 -38 -43 -110 9 -110 36 0 61 16 80 51 14 28 14 33
-1 55 -19 29 -53 31 -88 4z"/>
<path d="M4139 1605 c-58 -32 -58 -115 0 -115 59 0 111 78 76 114 -20 19 -41
20 -76 1z"/>
<path d="M17 1583 c-9 -16 -7 -148 2 -163 8 -11 12 -8 21 15 6 17 18 45 28 63
12 24 14 37 6 49 -14 22 -51 46 -57 36z"/>
<path d="M110 1575 c-22 -26 -8 -50 29 -50 37 0 58 22 48 49 -8 20 -60 21 -77
1z"/>
<path d="M2019 1580 c-27 -16 -41 -62 -30 -93 8 -21 17 -27 41 -27 25 0 33 6
47 36 16 32 16 38 2 62 -16 30 -36 37 -60 22z"/>
<path d="M2910 1576 c-17 -17 -11 -39 17 -68 15 -16 32 -43 38 -61 14 -44 54
-46 68 -2 5 17 16 37 23 46 18 20 18 50 0 75 -12 15 -27 19 -76 19 -33 0 -65
-4 -70 -9z"/>
<path d="M3100 1575 c-22 -26 -8 -50 29 -50 37 0 58 22 48 49 -8 20 -60 21
-77 1z"/>
<path d="M5000 1570 c-37 -37 -24 -110 21 -110 52 0 80 78 41 113 -24 22 -38
21 -62 -3z"/>
<path d="M5940 1581 c-56 -7 -64 -31 -24 -72 16 -16 33 -44 39 -62 5 -17 18
-33 28 -35 15 -3 17 6 17 87 0 50 -3 90 -7 89 -5 0 -28 -4 -53 -7z"/>
<path d="M1415 1556 c-20 -30 -16 -95 6 -109 53 -33 112 52 79 114 -16 28 -65
25 -85 -5z"/>
<path d="M2350 1561 c-31 -58 29 -139 75 -101 20 16 19 70 -1 98 -19 27 -60
29 -74 3z"/>
<path d="M4410 1558 c-22 -24 -27 -87 -8 -106 19 -19 55 -14 78 10 22 24 27
87 8 106 -19 19 -55 14 -78 -10z"/>
<path d="M5347 1562 c-10 -10 -17 -28 -17 -39 0 -28 37 -73 60 -73 27 0 53 43
45 72 -17 55 -58 73 -88 40z"/>
<path d="M1262 1527 c-31 -33 -30 -91 2 -112 41 -27 86 10 86 70 0 63 -47 86
-88 42z"/>
<path d="M4251 1524 c-29 -37 -28 -89 3 -109 43 -29 86 10 86 77 0 61 -52 79
-89 32z"/>
<path d="M2120 1463 c-26 -33 -23 -80 6 -100 18 -12 24 -11 47 8 47 36 32 119
-22 119 -5 0 -19 -12 -31 -27z"/>
<path d="M5115 1465 c-54 -54 -9 -140 49 -94 33 26 37 92 7 109 -27 14 -29 13
-56 -15z"/>
<path d="M96 1461 c-15 -17 -16 -23 -6 -36 16 -19 64 -20 80 0 35 42 -37 77
-74 36z"/>
<path d="M2240 1461 c-15 -30 -12 -56 11 -85 36 -45 79 -28 81 33 2 58 -67 97
-92 52z"/>
<path d="M3090 1465 c-22 -26 -8 -50 29 -50 37 0 58 22 48 49 -8 20 -60 21
-77 1z"/>
<path d="M5230 1454 c-13 -34 -3 -72 26 -91 29 -19 50 -12 66 22 9 21 8 32 -5
60 -14 29 -22 35 -47 35 -24 0 -33 -6 -40 -26z"/>
<path d="M472 1308 c-16 -16 -15 -45 2 -51 18 -7 39 17 34 39 -4 22 -20 28
-36 12z"/>
<path d="M3462 1308 c-16 -16 -15 -33 2 -47 10 -9 16 -8 25 3 25 29 -1 70 -27
44z"/>
<path d="M400 1280 c-8 -15 -9 -25 -2 -32 17 -17 44 -1 40 24 -4 30 -24 34
-38 8z"/>
<path d="M3397 1294 c-4 -4 -7 -18 -7 -31 0 -18 5 -24 18 -21 10 2 17 12 17
27 0 24 -15 37 -28 25z"/>
<path d="M526 1274 c-20 -20 -20 -33 0 -41 20 -8 49 21 41 41 -8 20 -21 20
-41 0z"/>
<path d="M3522 1278 c-16 -16 -15 -48 2 -48 20 0 39 27 32 45 -7 18 -18 19
-34 3z"/>
<path d="M950 1245 c-14 -17 -7 -43 15 -52 26 -10 40 12 27 42 -13 29 -24 31
-42 10z"/>
<path d="M1026 1245 c-21 -22 -17 -50 8 -50 29 0 44 31 25 51 -15 14 -18 14
-33 -1z"/>
<path d="M3941 1246 c-15 -18 2 -56 25 -56 19 0 30 29 17 48 -14 22 -28 25
-42 8z"/>
<path d="M4017 1240 c-18 -26 -12 -50 13 -50 25 0 36 38 17 57 -13 13 -16 12
-30 -7z"/>
<path d="M450 1225 c-7 -8 -18 -15 -26 -15 -7 0 -16 -5 -19 -10 -9 -15 13 -40
35 -40 10 0 23 -7 30 -15 7 -8 21 -15 31 -15 16 0 19 8 19 43 0 24 -5 48 -12
55 -16 16 -43 15 -58 -3z"/>
<path d="M3440 1225 c-7 -8 -18 -15 -25 -15 -18 0 -26 -25 -12 -39 6 -6 19
-11 28 -11 9 0 22 -7 29 -15 7 -8 21 -15 31 -15 16 0 19 8 19 43 0 24 -5 48
-12 55 -16 16 -43 15 -58 -3z"/>
<path d="M550 1206 c-13 -17 -7 -46 9 -46 15 0 42 31 38 44 -6 17 -33 18 -47
2z"/>
<path d="M3541 1203 c-6 -12 -6 -25 -1 -34 12 -19 45 1 45 27 0 25 -31 30 -44
7z"/>
<path d="M894 1196 c-10 -26 1 -51 21 -51 23 0 32 30 15 50 -16 19 -29 19 -36
1z"/>
<path d="M1536 1194 c-65 -64 63 -162 137 -104 35 28 34 54 -2 91 -24 23 -38
29 -75 29 -27 0 -51 -6 -60 -16z"/>
<path d="M2941 1191 c-47 -47 -32 -133 25 -139 37 -4 63 22 71 72 11 70 -50
113 -96 67z"/>
<path d="M3884 1196 c-10 -26 1 -51 21 -51 23 0 32 30 15 50 -16 19 -29 19
-36 1z"/>
<path d="M4527 1192 c-40 -44 -4 -104 70 -118 26 -5 41 -2 61 13 38 28 39 57
3 93 -24 24 -38 30 -74 30 -30 0 -49 -6 -60 -18z"/>
<path d="M5931 1187 c-25 -27 -30 -81 -12 -115 10 -18 19 -22 44 -20 l32 3 3
78 c3 75 2 77 -21 77 -13 0 -33 -11 -46 -23z"/>
<path d="M12 1135 c-3 -68 7 -83 26 -40 15 32 15 60 2 86 -18 33 -25 21 -28
-46z"/>
<path d="M1080 1179 c-10 -17 -9 -24 4 -37 12 -13 18 -13 31 -2 20 17 16 54
-7 58 -9 2 -22 -6 -28 -19z"/>
<path d="M4077 1194 c-11 -11 -8 -52 3 -59 17 -10 41 16 38 39 -3 21 -28 33
-41 20z"/>
<path d="M984 1172 c-19 -13 -53 -78 -46 -88 9 -13 125 -15 133 -1 4 5 -3 26
-14 46 -22 38 -35 51 -52 51 -5 0 -15 -4 -21 -8z"/>
<path d="M3951 1139 c-17 -22 -28 -46 -25 -53 5 -14 131 -19 139 -5 7 10 -30
79 -47 91 -24 15 -38 8 -67 -33z"/>
<path d="M2782 1153 c-17 -7 -42 -57 -42 -85 0 -69 75 -93 111 -35 42 68 -2
147 -69 120z"/>
<path d="M5761 1139 c-47 -50 -32 -131 25 -137 37 -4 63 22 71 72 11 71 -51
113 -96 65z"/>
<path d="M89 1101 c-52 -52 -26 -133 36 -117 60 15 99 98 63 134 -22 22 -68
14 -99 -17z"/>
<path d="M3085 1106 c-45 -45 -45 -97 -1 -117 34 -16 77 7 99 54 18 35 18 39
3 62 -22 33 -68 34 -101 1z"/>
<path d="M1741 1045 c-21 -19 -48 -35 -59 -35 -32 0 -90 -56 -97 -94 -12 -61
41 -136 96 -136 6 0 29 -16 50 -35 47 -42 90 -47 113 -13 20 28 20 53 0 111
-15 44 -15 50 5 106 23 66 18 101 -18 120 -32 18 -49 13 -90 -24z"/>
<path d="M4734 1046 c-21 -18 -53 -36 -70 -40 -56 -13 -99 -79 -88 -136 8 -36
48 -78 83 -87 14 -3 43 -21 64 -39 87 -79 158 -12 111 105 -15 38 -15 43 5 96
27 71 26 81 -4 110 -32 33 -54 31 -101 -9z"/>
<path d="M1412 1048 c-43 -21 -41 -85 4 -115 56 -36 144 -11 144 42 0 30 -43
71 -81 79 -38 7 -38 7 -67 -6z"/>
<path d="M4411 1047 c-76 -39 -35 -128 60 -131 91 -2 108 94 24 130 -42 17
-53 17 -84 1z"/>
<path d="M2912 997 c-12 -7 -29 -22 -37 -34 -8 -11 -27 -24 -42 -28 -40 -10
-63 -34 -63 -66 0 -35 28 -54 91 -63 36 -5 56 -16 87 -46 46 -46 81 -51 113
-19 16 16 19 27 13 47 -4 15 -8 55 -10 89 -3 73 -14 98 -54 118 -35 18 -67 19
-98 2z"/>
<path d="M5883 976 c-21 -18 -49 -37 -63 -41 -38 -11 -60 -35 -60 -66 0 -36
29 -55 96 -64 42 -5 58 -14 90 -46 21 -21 42 -39 46 -39 4 0 8 63 8 139 0 117
-2 140 -16 145 -34 13 -66 5 -101 -28z"/>
<path d="M11 855 c-2 -144 1 -151 48 -125 26 13 32 34 20 72 -6 18 -10 57 -9
87 1 56 -19 101 -44 101 -11 0 -14 -28 -15 -135z"/>
<path d="M2343 955 c-21 -20 -46 -35 -60 -35 -75 0 -96 -77 -26 -95 16 -3 38
-16 50 -27 30 -28 82 -26 106 3 11 14 17 36 16 63 -1 23 1 53 5 67 5 19 3 31
-9 43 -24 24 -42 20 -82 -19z"/>
<path d="M5339 959 c-18 -19 -46 -35 -76 -42 -43 -11 -48 -15 -51 -43 -3 -27
1 -33 30 -44 18 -7 43 -22 55 -33 13 -11 37 -20 53 -20 50 0 67 27 73 116 5
68 3 78 -13 87 -29 16 -40 12 -71 -21z"/>
<path d="M169 931 c-45 -46 -37 -121 13 -121 48 0 98 50 98 98 0 25 -31 52
-59 52 -12 0 -36 -13 -52 -29z"/>
<path d="M3159 931 c-31 -32 -40 -86 -17 -109 38 -38 128 16 128 77 0 63 -61
81 -111 32z"/>
<path d="M2486 915 c-21 -22 -20 -37 5 -69 31 -40 89 -30 89 15 0 44 -66 81
-94 54z"/>
<path d="M5482 918 c-33 -33 7 -102 56 -96 21 2 28 9 30 29 5 45 -58 95 -86
67z"/>
<path d="M4436 869 c-43 -12 -66 -38 -66 -75 0 -66 98 -83 154 -27 14 14 26
33 26 42 0 43 -60 75 -114 60z"/>
<path d="M627 859 c-8 -5 -19 -24 -22 -42 -4 -17 -20 -46 -37 -63 -20 -21 -29
-40 -26 -55 3 -23 8 -24 76 -26 61 -2 76 1 92 17 25 25 25 60 2 91 -11 13 -22
36 -25 50 -7 29 -35 42 -60 28z"/>
<path d="M742 858 c-17 -17 -15 -32 7 -52 23 -21 70 -18 85 6 23 37 -59 79
-92 46z"/>
<path d="M1399 841 c-34 -34 -36 -50 -10 -82 16 -20 28 -24 67 -23 40 1 52 6
76 33 33 37 35 54 8 81 -14 14 -33 20 -66 20 -37 0 -51 -5 -75 -29z"/>
<path d="M3628 862 c-11 -2 -23 -20 -30 -45 -6 -23 -25 -53 -41 -68 -24 -20
-29 -30 -24 -51 7 -25 10 -26 78 -26 56 0 75 4 90 19 22 22 25 72 5 89 -8 6
-20 27 -26 45 -12 35 -24 44 -52 37z"/>
<path d="M3732 858 c-17 -17 -15 -32 7 -52 23 -21 70 -18 85 6 23 37 -59 79
-92 46z"/>
<path d="M2441 786 c-19 -23 -5 -63 29 -81 34 -17 57 -11 66 17 14 47 -65 100
-95 64z"/>
<path d="M5430 781 c-23 -43 38 -104 81 -81 26 14 24 52 -4 78 -29 27 -63 28
-77 3z"/>
<path d="M2216 764 c-33 -32 -8 -104 35 -104 41 0 53 66 19 100 -24 24 -34 25
-54 4z"/>
<path d="M5206 764 c-33 -32 -6 -104 38 -104 42 0 52 78 14 104 -28 20 -33 20
-52 0z"/>
<path d="M770 742 c-19 -16 -21 -22 -11 -40 23 -43 92 -39 99 5 6 39 -53 63
-88 35z"/>
<path d="M3766 747 c-24 -18 -17 -48 16 -67 32 -18 61 -6 66 27 5 35 -51 62
-82 40z"/>
<path d="M2345 726 c-17 -26 -9 -62 18 -85 38 -31 81 25 56 72 -23 43 -51 48
-74 13z"/>
<path d="M5342 738 c-31 -31 -2 -108 41 -108 37 0 49 68 17 100 -23 23 -41 25
-58 8z"/>
<path d="M1576 720 c-44 -14 -66 -39 -66 -77 0 -29 5 -36 34 -48 20 -9 48 -12
65 -9 36 8 81 49 81 75 0 20 -33 59 -49 59 -5 0 -15 2 -23 4 -7 2 -26 0 -42
-4z"/>
<path d="M4525 695 c-41 -40 -32 -88 21 -105 85 -28 175 60 116 113 -30 27
-107 23 -137 -8z"/>
<path d="M712 653 c-22 -41 39 -102 73 -73 21 17 19 46 -5 70 -25 25 -56 26
-68 3z"/>
<path d="M3704 655 c-11 -27 6 -65 32 -76 32 -12 54 3 54 37 0 40 -73 74 -86
39z"/>
<path d="M594 615 c-16 -41 32 -94 71 -79 21 8 19 57 -3 77 -23 21 -61 22 -68
2z"/>
<path d="M3584 616 c-9 -25 0 -48 26 -68 47 -34 86 5 52 52 -22 29 -69 39 -78
16z"/>
<path d="M1158 465 c-10 -21 -9 -29 5 -42 13 -14 19 -14 32 -3 21 17 16 64 -7
68 -11 2 -22 -6 -30 -23z"/>
<path d="M2820 475 c-9 -11 -11 -22 -4 -32 13 -21 25 -21 38 -1 8 14 7 21 -5
33 -14 15 -17 15 -29 0z"/>
<path d="M4156 468 c-15 -20 -7 -58 12 -58 27 1 48 46 31 66 -16 19 -25 18
-43 -8z"/>
<path d="M5810 475 c-8 -10 -8 -19 -1 -34 14 -26 41 -17 41 14 0 27 -24 39
-40 20z"/>
<path d="M1082 458 c-16 -16 -15 -43 2 -57 19 -16 48 13 44 43 -3 24 -28 32
-46 14z"/>
<path d="M1771 456 c-17 -20 26 -51 46 -34 11 9 11 14 -3 29 -20 23 -28 23
-43 5z"/>
<path d="M4072 458 c-16 -16 -15 -43 1 -57 20 -16 50 9 45 39 -3 28 -27 37
-46 18z"/>
<path d="M4767 463 c-13 -12 -7 -32 12 -42 28 -15 48 11 26 33 -18 17 -28 20
-38 9z"/>
<path d="M2750 440 c0 -26 38 -47 46 -25 9 23 -3 45 -26 45 -13 0 -20 -7 -20
-20z"/>
<path d="M2884 446 c-9 -24 4 -48 23 -44 12 2 18 12 18 28 0 29 -32 41 -41 16z"/>
<path d="M5747 453 c-11 -10 -8 -20 9 -38 22 -22 48 -2 33 26 -10 19 -30 25
-42 12z"/>
<path d="M5875 450 c-11 -17 5 -51 23 -48 23 4 23 52 0 56 -9 2 -19 -2 -23 -8z"/>
<path d="M2120 439 c-59 -24 -91 -84 -76 -144 15 -60 105 -49 146 17 27 45 25
84 -5 113 -27 28 -29 28 -65 14z"/>
<path d="M5102 434 c-70 -29 -93 -128 -40 -167 23 -17 31 -18 56 -8 45 19 73
54 79 100 9 67 -35 101 -95 75z"/>
<path d="M1227 433 c-4 -3 -7 -17 -7 -30 0 -18 5 -23 25 -23 25 0 51 32 40 50
-7 11 -48 13 -58 3z"/>
<path d="M4222 428 c-17 -17 -15 -45 3 -52 18 -7 58 30 52 47 -5 17 -40 20
-55 5z"/>
<path d="M1711 416 c-9 -11 -8 -18 4 -30 20 -19 27 -20 43 -4 9 9 8 16 -5 30
-19 22 -27 22 -42 4z"/>
<path d="M4703 414 c-3 -8 2 -23 11 -32 15 -15 17 -15 32 -1 14 15 14 18 -1
33 -21 20 -34 20 -42 0z"/>
<path d="M2312 404 c-78 -54 -62 -187 21 -170 74 15 120 108 81 164 -18 26
-69 30 -102 6z"/>
<path d="M5301 404 c-26 -19 -51 -71 -51 -108 0 -28 42 -66 73 -66 10 0 37 17
58 39 32 32 39 46 39 78 0 47 -23 73 -66 73 -16 0 -40 -7 -53 -16z"/>
<path d="M2813 402 c-6 -4 -14 -28 -18 -54 -8 -53 3 -62 41 -33 10 8 29 15 41
15 37 0 38 21 3 51 -34 30 -47 34 -67 21z"/>
<path d="M5803 398 c-6 -7 -13 -30 -17 -51 -8 -44 13 -60 43 -33 10 9 27 16
40 16 34 0 36 26 4 54 -31 28 -55 33 -70 14z"/>
<path d="M1806 390 c-27 -8 -45 -25 -46 -42 0 -4 13 -21 29 -39 35 -38 61 -34
61 9 0 15 5 33 11 39 14 14 5 43 -13 42 -7 0 -26 -5 -42 -9z"/>
<path d="M2720 382 c0 -28 27 -49 43 -33 8 8 9 16 1 29 -16 25 -44 28 -44 4z"/>
<path d="M4805 393 c-50 -13 -60 -54 -21 -90 34 -32 53 -29 59 10 3 17 9 44
12 60 8 28 -1 32 -50 20z"/>
<path d="M5714 385 c-9 -22 22 -53 37 -38 15 15 7 47 -14 51 -9 2 -20 -4 -23
-13z"/>
<path d="M470 383 c-8 -4 -32 -17 -54 -31 -35 -22 -45 -23 -117 -17 -75 7 -79
6 -103 -19 -36 -35 -34 -72 5 -105 49 -42 69 -64 93 -101 64 -102 226 -53 226
68 0 22 5 44 10 47 14 9 50 81 50 100 0 41 -65 75 -110 58z"/>
<path d="M1113 371 c-18 -9 -35 -23 -38 -31 -7 -16 20 -40 45 -40 9 0 26 -11
38 -25 24 -28 37 -31 49 -13 11 18 12 90 1 111 -11 21 -51 20 -95 -2z"/>
<path d="M3421 359 c-51 -29 -57 -31 -130 -24 -68 6 -78 4 -98 -14 -47 -44
-39 -88 23 -130 20 -14 44 -41 54 -61 62 -121 231 -89 244 47 3 23 16 59 30
80 33 47 33 77 1 108 -32 33 -59 31 -124 -6z"/>
<path d="M4105 372 c-16 -10 -33 -21 -37 -26 -11 -16 3 -36 31 -42 14 -4 38
-18 53 -32 22 -20 30 -23 42 -13 15 12 17 96 2 119 -10 17 -55 13 -91 -6z"/>
<path d="M1256 339 c-18 -26 -11 -49 15 -49 25 0 52 40 37 57 -15 19 -35 16
-52 -8z"/>
<path d="M1697 353 c-12 -12 -7 -31 10 -37 19 -8 48 17 39 33 -8 12 -39 15
-49 4z"/>
<path d="M4252 348 c-17 -17 -15 -48 4 -55 21 -8 57 28 48 50 -7 20 -35 22
-52 5z"/>
<path d="M4683 344 c-5 -14 11 -34 27 -34 3 0 11 4 19 9 19 12 6 41 -19 41
-11 0 -23 -7 -27 -16z"/>
<path d="M1723 284 c-5 -14 11 -34 27 -34 3 0 11 4 19 9 19 12 6 41 -19 41
-11 0 -23 -7 -27 -16z"/>
<path d="M4713 285 c-7 -19 13 -36 37 -32 8 1 15 11 15 22 0 26 -42 34 -52 10z"/>
<path d="M2443 245 c-20 -9 -39 -28 -50 -50 -16 -33 -16 -39 -2 -63 12 -23 22
-27 65 -30 44 -3 55 1 82 26 43 41 51 77 21 108 -26 28 -66 31 -116 9z"/>
<path d="M5434 244 c-17 -8 -40 -31 -50 -50 -17 -31 -17 -37 -4 -61 29 -52
117 -48 164 8 66 78 -13 151 -110 103z"/>
<path d="M620 210 c-52 -52 3 -180 77 -180 81 0 83 143 3 185 -39 20 -56 19
-80 -5z"/>
<path d="M3616 209 c-60 -47 -7 -179 71 -179 81 0 83 143 3 185 -38 19 -42 19
-74 -6z"/>
<path d="M2168 191 c-23 -11 -58 -18 -94 -18 -48 0 -61 -4 -76 -23 -28 -35
-23 -68 18 -106 l35 -34 139 0 c127 0 140 2 150 19 29 55 -5 142 -65 167 -45
18 -63 18 -107 -5z"/>
<path d="M5160 193 c-19 -9 -60 -17 -92 -18 -63 -1 -84 -13 -93 -55 -8 -36 8
-66 48 -90 28 -17 51 -20 168 -20 153 0 149 -2 149 74 0 51 -28 92 -76 112
-42 18 -61 17 -104 -3z"/>
<path d="M105 108 c-15 -14 -28 -38 -32 -61 l-6 -37 77 0 76 0 0 35 c0 25 -8
44 -25 60 -30 31 -56 32 -90 3z"/>
<path d="M3107 119 c-21 -12 -47 -61 -47 -89 0 -18 6 -20 73 -20 41 0 76 2 79
6 11 11 -12 80 -33 97 -24 19 -46 21 -72 6z"/>
<path d="M1646 91 c-11 -16 6 -41 31 -47 33 -9 48 8 34 35 -12 21 -55 29 -65
12z"/>
<path d="M4640 82 c0 -23 19 -42 42 -42 24 0 34 26 18 45 -18 22 -60 19 -60
-3z"/>
<path d="M1577 53 c-4 -3 -7 -15 -7 -25 0 -14 8 -18 35 -18 40 0 45 12 13 34
-25 18 -32 19 -41 9z"/>
<path d="M4573 53 c-7 -2 -13 -13 -13 -24 0 -15 7 -19 35 -19 24 0 35 5 35 15
0 12 -31 37 -42 34 -2 0 -9 -3 -15 -6z"/>
<path d="M498 39 c-32 -18 -19 -29 37 -29 59 0 70 10 30 28 -31 14 -45 15 -67
1z"/>
<path d="M3484 36 c-28 -21 -14 -27 52 -24 l59 3 -32 18 c-39 21 -53 21 -79 3z"/>
<path d="M2470 20 c-11 -7 -2 -10 33 -10 30 0 46 4 42 10 -8 13 -55 13 -75 0z"/>
<path d="M5460 20 c-11 -7 1 -10 40 -10 39 0 51 3 40 10 -19 12 -61 12 -80 0z"/>
<path d="M1738 13 c7 -3 16 -2 19 1 4 3 -2 6 -13 5 -11 0 -14 -3 -6 -6z"/>
<path d="M4728 13 c7 -3 16 -2 19 1 4 3 -2 6 -13 5 -11 0 -14 -3 -6 -6z"/>
</g>
</svg>
